<?xml version="1.0" encoding="utf-8"?>
<svg xmlns="http://www.w3.org/2000/svg" viewBox="0 0 500 500">
  <g id="Layer_1" transform="matrix(1, 0, 0, 1, 8.834461, 93.736496)">
    <path fill="#FBFBFA" opacity="1.000000" stroke="none" d="M 159.59 182.929 C 139.813 187.411 120.009 191.778 100.282 196.469 C 96.316 197.412 94.077 196.501 91.503 193.401 C 79.48 178.921 67.068 164.764 55.036 150.292 C 53.182 148.063 51.559 144.797 51.548 142.005 C 51.319 79.69 51.33 17.374 51.296 -44.942 C 51.296 -46.034 51.296 -47.126 51.296 -49.168 C 55.258 -46.764 58.477 -44.842 61.665 -42.87 C 80.327 -31.326 98.823 -19.5 117.755 -8.418 C 122.23 -5.798 128.104 -5.236 133.44 -4.529 C 137.547 -3.985 140.222 -2.621 142.663 0.935 C 173.266 45.503 203.958 90.01 234.92 134.329 C 239.793 141.305 239.972 148.077 237.261 155.404 C 233.862 164.596 230.019 173.626 226.734 182.856 C 226.107 184.616 226.402 187.807 227.596 188.939 C 238.021 198.815 239.646 210.857 239.426 224.667 C 238.71 269.631 239.158 314.613 238.153 360.422 C 194.637 310.912 151.121 261.401 107.128 211.348 C 125.11 202.209 142.526 193.358 160.509 184.157 C 161.417 183.527 161.758 183.245 162.099 182.964 C 161.263 182.952 160.426 182.941 159.59 182.929 M 166.644 71.55 C 183.137 95.345 199.582 119.173 216.188 142.889 C 218.091 145.606 218.569 147.775 217.316 150.946 C 212.857 162.225 208.631 173.601 204.595 185.038 C 204.011 186.694 204.33 189.29 205.29 190.758 C 209.113 196.602 213.486 202.085 217.366 207.895 C 218.561 209.684 219.425 212.086 219.44 214.214 C 219.652 244.375 219.694 274.537 219.766 304.699 C 219.769 305.898 219.657 307.096 219.534 309.611 C 189.816 275.382 160.934 242.117 132.092 208.899 C 128.65 210.701 125.724 212.232 122.178 214.089 C 158.106 255.13 193.759 295.858 230.297 337.596 C 230.297 334.751 230.298 333.453 230.297 332.154 C 230.275 298.492 229.553 264.81 230.539 231.178 C 231.001 215.456 228.908 201.667 217.426 190.305 C 217.31 190.19 217.166 190.044 217.147 189.897 C 216.875 187.815 215.857 185.455 216.49 183.689 C 220.357 172.902 224.509 162.212 228.765 151.569 C 230.31 147.704 230.185 144.614 227.662 140.972 C 197.05 96.78 166.638 52.45 136.024 8.259 C 134.812 6.51 132.2 2.621 130.069 1.784 C 124.318 -0.212 117.837 -0.681 112.726 -3.607 C 96.129 -13.108 80.021 -23.459 63.705 -33.452 C 62.96 -33.909 62.029 -34.062 61.073 -34.396 C 60.963 -33.537 60.845 -33.045 60.845 -32.554 C 60.831 23.771 60.794 80.096 60.939 136.42 C 60.944 138.618 62.242 141.187 63.705 142.945 C 73.079 154.214 83.122 164.957 92.003 176.593 C 96.782 182.854 101.427 185.652 108.839 182.355 C 109.104 182.238 109.304 181.976 109.8 181.555 C 108.741 180.166 107.714 178.704 106.571 177.339 C 95.766 164.44 84.884 151.606 74.197 138.611 C 72.855 136.979 71.817 134.525 71.811 132.448 C 71.664 84.289 71.678 36.13 71.675 -12.029 C 71.675 -13.081 71.825 -14.134 71.953 -15.809 C 83.291 -8.886 94.188 -2.54 104.743 4.331 C 110.747 8.239 117.003 10.728 124.077 11.724 C 126.222 12.026 128.807 13.55 130.04 15.317 C 142.233 32.779 154.184 50.411 166.423 68.28 Z"/>
    <path fill="#FAFBFA" opacity="1.000000" stroke="none" d="M 243.179 285.597 C 243.185 259.603 243.128 234.109 243.304 208.617 C 243.321 206.188 244.441 203.567 245.682 201.397 C 247.238 198.676 249.077 195.887 251.446 193.907 C 257.692 188.689 257.192 183.063 253.946 176.463 C 250.872 170.212 248.573 163.583 245.82 157.168 C 242.388 149.169 242.414 141.987 247.784 134.306 C 279.245 89.301 310.32 44.027 341.637 -1.08 C 342.601 -2.47 344.773 -3.817 346.392 -3.83 C 357.928 -3.923 367.315 -9.144 376.711 -15.123 C 392.703 -25.3 409.07 -34.888 425.286 -44.711 C 426.819 -45.64 428.4 -46.49 430.568 -47.723 C 430.683 -45.414 430.845 -43.68 430.847 -41.946 C 430.898 18.872 430.907 79.69 431.035 140.507 C 431.043 144.233 430.075 147.08 427.596 149.926 C 414.904 164.493 402.365 179.195 389.909 193.965 C 387.955 196.281 386.264 197.009 383.182 196.272 C 363.933 191.672 344.627 187.313 325.328 182.924 C 323.746 182.564 322.08 182.577 320.255 183.094 C 338.385 192.246 356.515 201.397 375.121 210.789 C 331.175 261.052 287.679 310.8 243.18 361.695 C 243.18 335.477 243.18 310.787 243.179 285.597 M 362.755 13.656 C 366.915 12.125 371.378 11.125 375.178 8.962 C 385.585 3.038 395.707 -3.388 405.963 -9.58 C 407.298 -10.386 408.758 -10.987 410.621 -11.911 C 410.716 -10.389 410.807 -9.601 410.807 -8.813 C 410.826 39.184 410.864 87.181 410.752 135.177 C 410.748 137.093 409.724 139.342 408.477 140.862 C 402.666 147.945 396.579 154.8 390.649 161.786 C 384.416 169.13 378.248 176.53 371.784 184.225 C 373.899 184.781 375.404 184.997 376.761 185.566 C 381.665 187.625 384.731 185.862 388.008 181.82 C 398.183 169.271 408.923 157.181 419.269 144.767 C 420.602 143.168 421.578 140.711 421.583 138.648 C 421.723 83.819 421.717 28.989 421.722 -25.84 C 421.722 -27.412 421.577 -28.984 421.47 -31.173 C 419.392 -29.964 417.971 -29.163 416.574 -28.321 C 402.901 -20.084 389.067 -12.096 375.626 -3.495 C 368.284 1.204 360.602 4.001 352.008 4.96 C 350.059 5.178 347.771 6.71 346.554 8.326 C 342.655 13.504 339.2 19.041 335.542 24.377 C 308.916 62.825 282.323 101.296 255.55 139.643 C 252.576 143.903 251.893 147.545 254.022 152.416 C 258.476 162.61 262.48 173.009 266.337 183.447 C 266.991 185.216 266.652 188.018 265.633 189.617 C 262.419 194.66 258.41 199.198 255.227 204.258 C 253.658 206.753 252.423 209.961 252.408 212.854 C 252.208 252.017 252.249 291.181 252.231 330.345 C 252.23 332.265 252.231 334.185 252.231 337.453 C 288.692 295.634 324.266 254.831 360.152 213.671 C 356.494 211.752 353.462 210.162 350.186 208.444 C 335.637 225.215 321.237 241.81 306.842 258.41 C 292.489 274.961 278.141 291.516 263.442 308.474 C 263.181 307.345 262.992 306.91 262.993 306.475 C 263.024 275.477 263.036 244.479 263.206 213.482 C 263.216 211.693 264.216 209.705 265.271 208.162 C 269.218 202.395 273.563 196.892 277.341 191.021 C 278.361 189.436 278.648 186.644 278.014 184.85 C 273.97 173.411 269.725 162.034 265.201 150.776 C 263.887 147.507 264.605 145.326 266.447 142.678 C 294.484 102.361 322.512 62.037 350.303 21.551 C 353.337 17.132 356.332 13.808 362.343 13.711 C 368.284 13.614 375.178 8.962 375.178 8.962 C 385.585 3.038 395.707 -3.388 405.963 -9.58 C 407.298 -10.386 408.758 -10.987 410.621 -11.911 C 410.716 -10.389 410.807 -9.601 410.807 -8.813 C 410.826 39.184 410.864 87.181 410.752 135.177 C 410.748 137.093 409.724 139.342 408.477 140.862 C 402.666 147.945 396.579 154.8 390.649 161.786 Z"/>
    <path fill="#060707" opacity="1.000000" stroke="none" d="M 166.423 71.266 C 154.184 53.397 142.233 35.765 130.04 18.303 C 128.807 16.536 126.222 15.012 124.077 14.71 C 117.003 13.714 110.747 11.225 104.743 7.317 C 94.188 0.446 83.291 -5.9 71.953 -12.823 C 71.825 -11.148 71.675 -10.095 71.675 -9.043 C 71.678 39.116 71.664 87.275 71.811 135.434 C 71.817 137.511 72.855 139.965 74.197 141.597 C 84.884 154.592 95.766 167.426 106.571 180.325 C 107.714 181.69 108.741 183.152 109.8 184.541 C 109.304 184.962 109.104 185.224 108.839 185.341 C 101.427 188.638 96.782 185.84 92.003 179.579 C 83.122 167.943 73.079 157.2 63.705 145.931 C 62.242 144.173 60.944 141.604 60.939 139.406 C 60.794 83.082 60.831 26.757 60.845 -29.568 C 60.845 -30.059 60.963 -30.551 61.073 -31.41 C 62.029 -31.076 62.96 -30.923 63.705 -30.466 C 80.021 -20.473 96.129 -10.122 112.726 -0.621 C 117.837 2.305 124.318 2.774 130.069 4.678 C 132.238 5.396 134.812 6.51 136.024 8.259 C 166.638 52.45 197.05 96.78 227.662 140.972 C 230.185 144.614 230.31 147.704 228.765 151.569 C 224.509 162.212 220.357 172.902 216.49 183.689 C 215.857 185.455 216.875 187.815 217.147 189.897 C 217.166 190.044 217.31 190.19 217.426 190.305 C 228.908 201.667 231.001 215.456 230.539 231.178 C 229.553 264.81 230.275 298.492 230.297 332.154 C 230.298 333.453 230.297 334.751 230.297 337.596 C 193.759 295.858 158.106 255.13 122.178 214.089 C 125.724 212.232 128.65 210.701 132.092 208.899 C 160.934 242.117 189.816 275.382 219.534 309.611 C 219.657 307.096 219.769 305.898 219.766 304.699 C 219.694 274.537 219.652 244.375 219.44 214.214 C 219.425 212.086 218.561 209.684 217.366 207.895 C 213.486 202.085 209.113 196.602 205.29 190.758 C 204.33 189.29 204.011 186.694 204.595 185.038 C 208.631 173.601 212.857 162.225 217.316 150.946 C 218.569 147.775 218.091 145.606 216.188 142.889 C 199.582 119.173 183.137 95.345 166.423 71.266 Z" style="stroke-width: 1;"/>
    <path fill="#000000" opacity="1.000000" stroke="none" d="M 159.789 183.199 C 160.426 182.941 161.263 182.952 162.099 182.964 C 161.758 183.245 161.417 183.527 160.745 183.896 C 160.272 183.813 160.13 183.641 159.789 183.199 Z" style="stroke-width: 1;"/>
    <path fill="#070707" opacity="1.000000" stroke="none" d="M 362.343 13.711 C 356.332 13.808 353.337 17.132 350.303 21.551 C 322.512 62.037 294.484 102.361 266.447 142.678 C 264.605 145.326 263.887 147.507 265.201 150.776 C 269.725 162.034 273.97 173.411 278.014 184.85 C 278.648 186.644 278.361 189.436 277.341 191.021 C 273.563 196.892 269.218 202.395 265.271 208.162 C 264.216 209.705 263.216 211.693 263.206 213.482 C 263.036 244.479 263.024 275.477 262.993 306.475 C 262.992 306.91 263.181 307.345 263.442 308.474 C 278.141 291.516 292.489 274.961 306.842 258.41 C 321.237 241.81 335.637 225.215 350.186 208.444 C 353.462 210.162 356.494 211.752 360.152 213.671 C 324.266 254.831 288.692 295.634 252.231 337.453 C 252.231 334.185 252.23 332.265 252.231 330.345 C 252.249 291.181 252.208 252.017 252.408 212.854 C 252.423 209.961 253.658 206.753 255.227 204.258 C 258.41 199.198 262.419 194.66 265.633 189.617 C 266.652 188.018 266.991 185.216 266.337 183.447 C 262.48 173.009 258.476 162.61 254.022 152.416 C 251.893 147.545 252.576 143.903 255.55 139.643 C 282.323 101.296 308.916 62.825 335.542 24.377 C 339.237 19.041 342.655 13.504 346.554 8.326 C 347.771 6.71 350.059 5.178 352.008 4.96 C 360.602 4.001 368.284 1.204 375.626 -3.495 C 389.067 -12.096 402.901 -20.084 416.574 -28.321 C 417.971 -29.163 419.392 -29.964 421.47 -31.173 C 421.577 -28.984 421.722 -27.412 421.722 -25.84 C 421.717 28.989 421.723 83.819 421.583 138.648 C 421.578 140.711 420.602 143.168 419.269 144.767 C 408.923 157.181 398.183 169.271 388.008 181.82 C 384.731 185.862 381.665 187.625 376.761 185.566 C 375.404 184.997 373.899 184.781 371.784 184.225 C 378.248 176.53 384.416 169.13 390.649 161.786 C 396.579 154.8 402.666 147.945 408.477 140.862 C 409.724 139.342 410.748 137.093 410.752 135.177 C 410.864 87.181 410.826 39.184 410.807 -8.813 C 410.807 -9.601 410.716 -10.389 410.621 -11.911 C 408.758 -10.987 407.298 -10.386 405.963 -9.58 C 395.707 -3.388 385.585 3.038 375.178 8.962 C 371.378 11.125 366.915 13.614 362.343 13.711 Z"/>
  </g>
 </svg>
